<mxfile host="drawio-plugin" modified="2024-04-14T12:54:47.955Z" agent="5.0 (Windows NT 10.0; Win64; x64) AppleWebKit/537.36 (KHTML, like Gecko) Chrome/122.0.0.0 Safari/537.36" version="20.5.3" etag="Y855xos7bSsPdTiND6IC" type="embed"><diagram id="TsihbJeXRPasiS459A9h" name="Page-1"><mxGraphModel dx="789" dy="589" grid="1" gridSize="10" guides="1" tooltips="1" connect="1" arrows="1" fold="1" page="1" pageScale="1" pageWidth="850" pageHeight="1100" math="0" shadow="0"><root><mxCell id="0"/><mxCell id="1" parent="0"/><mxCell id="2" value="" style="rounded=0;whiteSpace=wrap;html=1;" vertex="1" parent="1"><mxGeometry x="190" y="210" width="120" height="60" as="geometry"/></mxCell></root></mxGraphModel></diagram></mxfile>